Coordinates
version=1
nRows=7
nColumns=40
inDegrees=yes

Units are S.I. units (second, meters, Newtons, ...)
Angles are in degrees.

endheader
time	pelvis_tilt	pelvis_list	pelvis_rotation	pelvis_tx	pelvis_ty	pelvis_tz	hip_flexion_r	hip_adduction_r	hip_rotation_r	knee_angle_r	knee_angle_r_beta	ankle_angle_r	subtalar_angle_r	mtp_angle_r	hip_flexion_l	hip_adduction_l	hip_rotation_l	knee_angle_l	knee_angle_l_beta	ankle_angle_l	subtalar_angle_l	mtp_angle_l	lumbar_extension	lumbar_bending	lumbar_rotation	arm_flex_r	arm_add_r	arm_rot_r	elbow_flex_r	pro_sup_r	wrist_flex_r	wrist_dev_r	arm_flex_l	arm_add_l	arm_rot_l	elbow_flex_l	pro_sup_l	wrist_flex_l	wrist_dev_l
     50.39250000	     -6.71336161	     -5.03863959	     12.23988504	      1.17959546	      0.92083919	      0.47598615	      2.23280251	      1.89632322	    -19.67802853	     11.09745951	     11.09745951	     15.27397914	     -3.73978837	     -4.48980597	     28.27577665	     -5.17149846	      2.28429508	     23.13108700	     23.13108700	      5.68341086	    -11.30933801	      2.04029702	     -7.28254028	      3.01948979	      5.08890694	     68.47331245	    -16.31393607	      1.59600846	     83.31343805	     44.06279389	      0.00000000	      0.00000000	    -10.68180396	    -12.81416201	     21.47868347	     33.14365742	     42.92761011	      0.00000000	      0.00000000
     50.41428571	     -6.85189744	     -4.96362564	     11.74178335	      1.18059828	      0.92125228	      0.47040538	      1.90310860	      1.43360462	    -19.41936882	     10.97276121	     10.97276121	     14.97581757	     -3.35216489	     -4.31880240	     28.04662116	     -4.91851383	      1.94472816	     23.46838064	     23.46838064	      6.09844276	    -11.74872831	      1.92966472	     -7.21444798	      3.03770118	      5.14908730	     67.66631948	    -16.08478964	      1.68186035	     82.93716982	     44.07278722	      0.00000000	      0.00000000	     -9.79945372	    -13.12652640	     21.32817951	     33.36738421	     42.96597154	      0.00000000	      0.00000000
     50.43607143	     -6.92327949	     -4.88644969	     11.19611085	      1.18155079	      0.92198583	      0.46484957	      1.45294440	      0.91503275	    -19.70520748	     10.75832031	     10.75832031	     14.90592904	     -1.83096702	     -3.67777726	     27.63751908	     -4.67693284	      1.61306322	     23.62631329	     23.62631329	      6.55860601	    -12.18011292	      2.31555337	     -7.15144677	      3.03738942	      5.59529049	     66.54685683	    -16.19238687	      0.81528701	     81.52532375	     44.17169183	      0.00000000	      0.00000000	     -8.75910263	    -13.33109658	     20.86565341	     33.58357751	     43.10047207	      0.00000000	      0.00000000
     50.45785714	     -7.06383795	     -4.87731725	     10.61025909	      1.18216460	      0.92257135	      0.45955183	      1.36221460	      0.44249203	    -19.48189955	     10.93265023	     10.93265023	     14.56781904	     -1.42255446	     -3.45318009	     27.32210856	     -4.53640622	      1.17530341	     23.73845367	     23.73845367	      6.92960176	    -12.44803034	      2.26712713	     -7.09503410	      3.16951267	      5.54298892	     65.22640299	    -15.78321568	      0.90916333	     81.02129119	     44.18503291	      0.00000000	      0.00000000	     -7.81195118	    -13.58388908	     20.68536397	     33.82045089	     43.14754251	      0.00000000	      0.00000000
     50.47964286	     -7.21152428	     -4.86306402	      9.96698241	      1.18261598	      0.92331607	      0.45436535	      1.44297405	     -0.12029317	    -19.30560768	     11.38666521	     11.38666521	     14.27601209	     -0.78839966	     -3.17629478	     26.90732129	     -4.42231771	      0.59917627	     23.65098975	     23.65098975	      7.27556227	    -12.55803692	      2.28494371	     -7.03146826	      3.24152789	      5.55189769	     63.50153062	    -15.58910952	      0.69660711	     80.05548278	     44.22486162	      0.00000000	      0.00000000	     -6.82344964	    -13.78757361	     20.42452913	     34.08834516	     43.21173909	      0.00000000	      0.00000000
     50.50142857	     -7.34176952	     -4.83111077	      9.28405558	      1.18279573	      0.92406876	      0.44929650	      1.90653311	     -0.92007029	    -19.62422493	     12.67081453	     12.67081453	     14.64761175	      0.67285107	     -2.02131916	     26.48854152	     -4.32785048	     -0.09894404	     23.57331695	     23.57331695	      7.74541556	    -12.47763245	      2.54562609	     -6.95776134	      3.34525662	      5.66870801	     61.75365713	    -14.86182871	     -0.99542298	     77.99839387	     44.38243542	      0.00000000	      0.00000000	     -5.57165841	    -13.81090079	     19.56072347	     34.10789692	     43.43397407	      0.00000000	      0.00000000
     50.52321429	     -7.43112912	     -4.84773369	      8.55155160	      1.18292910	      0.92495960	      0.44454714	      2.46000350	     -1.56729605	    -19.16941955	     14.02566009	     14.02566009	     14.37957614	      0.72444826	     -1.86977057	     25.92796995	     -4.30390854	     -0.79457280	     23.28445052	     23.28445052	      8.09417620	    -12.44340405	      2.55046303	     -6.96123027	      3.49262890	      5.61851031	     59.55428042	    -14.56252946	     -1.15931697	     76.73376272	     44.43586950	      0.00000000	      0.00000000	     -4.39003925	    -13.95317769	     19.14878163	     34.37055555	     43.53857542	      0.00000000	      0.00000000
